<svg width="32" height="32" viewBox="0 0 32 32" fill="none" xmlns="http://www.w3.org/2000/svg">
<path d="M12.3278 18.668C13.6172 18.668 14.6612 19.7133 14.6612 21.0013V25.668C14.6612 26.2868 14.4153 26.8803 13.9778 27.3179C13.5402 27.7555 12.9467 28.0013 12.3278 28.0013H4.99984C4.381 28.0013 3.78751 27.7555 3.34992 27.3179C2.91234 26.8803 2.6665 26.2868 2.6665 25.668V21.0013C2.6665 19.7133 3.71184 18.668 4.99984 18.668H12.3278ZM26.9998 18.668C28.2878 18.668 29.3332 19.7133 29.3332 21.0013V25.668C29.3332 26.2868 29.0873 26.8803 28.6498 27.3179C28.2122 27.7555 27.6187 28.0013 26.9998 28.0013H19.6718C19.053 28.0013 18.4595 27.7555 18.0219 27.3179C17.5843 26.8803 17.3385 26.2868 17.3385 25.668V21.0013C17.3385 19.7133 18.3825 18.668 19.6718 18.668H26.9998ZM26.9998 3.99463C28.2878 3.99463 29.3332 5.03996 29.3332 6.32796V13.6653C29.3333 13.9718 29.2731 14.2754 29.1559 14.5586C29.0388 14.8419 28.8669 15.0993 28.6502 15.3161C28.4335 15.5329 28.1763 15.7049 27.8931 15.8222C27.6099 15.9396 27.3064 16 26.9998 16H4.99984C4.381 16 3.78751 15.7541 3.34992 15.3165C2.91234 14.879 2.6665 14.2855 2.6665 13.6666V6.32796C2.66653 5.74238 2.88673 5.1782 3.28341 4.74744C3.68009 4.31668 4.22424 4.05081 4.80784 4.00263L4.99984 3.99463H26.9998Z" fill="#0B0B0B"/>
</svg>
