<svg width="32" height="32" viewBox="0 0 32 32" fill="none" xmlns="http://www.w3.org/2000/svg">
<path d="M16.0951 12.149C16.2784 11.6127 17.055 11.6127 17.2383 12.149L18.3132 15.2966C18.5498 15.9886 18.9484 16.6172 19.4775 17.1328C20.0065 17.6485 20.6515 18.0368 21.3612 18.2671L24.5875 19.3153C25.1375 19.494 25.1375 20.2513 24.5875 20.43L21.3596 21.4781C20.65 21.7089 20.0052 22.0976 19.4765 22.6134C18.9477 23.1293 18.5494 23.7582 18.3132 24.4503L17.2383 27.5963C17.1988 27.7137 17.1223 27.816 17.0196 27.8885C16.917 27.961 16.7935 28 16.6667 28C16.54 28 16.4165 27.961 16.3138 27.8885C16.2112 27.816 16.1346 27.7137 16.0951 27.5963L15.0202 24.4487C14.7838 23.7569 14.3854 23.1283 13.8567 22.6127C13.3279 22.0971 12.6833 21.7087 11.9739 21.4781L8.74591 20.43C8.62549 20.3915 8.52062 20.3168 8.44628 20.2168C8.37193 20.1167 8.3319 19.9962 8.3319 19.8726C8.3319 19.7491 8.37193 19.6286 8.44628 19.5285C8.52062 19.4284 8.62549 19.3538 8.74591 19.3153L11.9739 18.2671C12.6833 18.0366 13.3279 17.6481 13.8567 17.1325C14.3854 16.6169 14.7838 15.9884 15.0202 15.2966L16.0951 12.149ZM9.65748 3.86307C9.68138 3.7927 9.72741 3.73146 9.78904 3.68806C9.85066 3.64466 9.92475 3.62129 10.0008 3.62129C10.0768 3.62129 10.1509 3.64466 10.2125 3.68806C10.2741 3.73146 10.3202 3.7927 10.3441 3.86307L10.989 5.75133C11.2773 6.59309 11.9539 7.25284 12.8171 7.53397L14.7536 8.16284C14.8258 8.18614 14.8886 8.23103 14.9331 8.29113C14.9776 8.35122 15.0016 8.42346 15.0016 8.49759C15.0016 8.57172 14.9776 8.64397 14.9331 8.70406C14.8886 8.76416 14.8258 8.80904 14.7536 8.83235L12.8171 9.46122C12.3911 9.59909 12.004 9.83203 11.6867 10.1415C11.3693 10.451 11.1304 10.8285 10.989 11.2439L10.3441 13.1321C10.3202 13.2025 10.2741 13.2637 10.2125 13.3071C10.1509 13.3505 10.0768 13.3739 10.0008 13.3739C9.92475 13.3739 9.85066 13.3505 9.78904 13.3071C9.72741 13.2637 9.68138 13.2025 9.65748 13.1321L9.01255 11.2439C8.87117 10.8285 8.63227 10.451 8.31489 10.1415C7.99751 9.83203 7.61041 9.59909 7.18441 9.46122L5.24795 8.83235C5.17578 8.80904 5.11298 8.76416 5.06847 8.70406C5.02396 8.64397 5 8.57172 5 8.49759C5 8.42346 5.02396 8.35122 5.06847 8.29113C5.11298 8.23103 5.17578 8.18614 5.24795 8.16284L7.18441 7.53397C7.61041 7.3961 7.99751 7.16316 8.31489 6.85367C8.63227 6.54419 8.87117 6.16673 9.01255 5.75133L9.65748 3.86307ZM21.4379 2.15844C21.4543 2.11217 21.4852 2.07205 21.5261 2.04365C21.567 2.01526 21.616 2 21.6662 2C21.7164 2 21.7654 2.01526 21.8063 2.04365C21.8472 2.07205 21.878 2.11217 21.8945 2.15844L22.3245 3.4162C22.5161 3.97845 22.9677 4.41883 23.5443 4.6057L24.8342 5.02495C24.8816 5.041 24.9228 5.07106 24.9519 5.11095C24.981 5.15085 24.9967 5.19861 24.9967 5.24758C24.9967 5.29655 24.981 5.34431 24.9519 5.38421C24.9228 5.4241 24.8816 5.45416 24.8342 5.47021L23.5443 5.88946C23.2604 5.98208 23.0025 6.13774 22.7908 6.34416C22.5791 6.55058 22.4194 6.80212 22.3245 7.07896L21.8945 8.33672C21.878 8.38299 21.8472 8.42311 21.8063 8.45151C21.7654 8.4799 21.7164 8.49516 21.6662 8.49516C21.616 8.49516 21.567 8.4799 21.5261 8.45151C21.4852 8.42311 21.4543 8.38299 21.4379 8.33672L21.0079 7.07896C20.9129 6.80212 20.7533 6.55058 20.5416 6.34416C20.3299 6.13774 20.072 5.98208 19.7881 5.88946L18.4999 5.47021C18.4524 5.45416 18.4113 5.4241 18.3821 5.38421C18.353 5.34431 18.3374 5.29655 18.3374 5.24758C18.3374 5.19861 18.353 5.15085 18.3821 5.11095C18.4113 5.07106 18.4524 5.041 18.4999 5.02495L19.7897 4.6057C20.3663 4.41883 20.8179 3.97845 21.0096 3.4162L21.4379 2.15844Z" fill="#0B0B0B"/>
</svg>
