<svg width="32" height="32" viewBox="0 0 32 32" fill="none" xmlns="http://www.w3.org/2000/svg">
<path d="M7 10.5C7 9.57174 7.36875 8.6815 8.02513 8.02513C8.6815 7.36875 9.57174 7 10.5 7C11.4283 7 12.3185 7.36875 12.9749 8.02513C13.6313 8.6815 14 9.57174 14 10.5C14 11.4283 13.6313 12.3185 12.9749 12.9749C12.3185 13.6313 11.4283 14 10.5 14C9.57174 14 8.6815 13.6313 8.02513 12.9749C7.36875 12.3185 7 11.4283 7 10.5ZM10.5 5C9.04131 5 7.64236 5.57946 6.61091 6.61091C5.57946 7.64236 5 9.04131 5 10.5C5 11.9587 5.57946 13.3576 6.61091 14.3891C7.64236 15.4205 9.04131 16 10.5 16C11.9587 16 13.3576 15.4205 14.3891 14.3891C15.4205 13.3576 16 11.9587 16 10.5C16 9.04131 15.4205 7.64236 14.3891 6.61091C13.3576 5.57946 11.9587 5 10.5 5ZM21 12C21 11.4696 21.2107 10.9609 21.5858 10.5858C21.9609 10.2107 22.4696 10 23 10C23.5304 10 24.0391 10.2107 24.4142 10.5858C24.7893 10.9609 25 11.4696 25 12C25 12.5304 24.7893 13.0391 24.4142 13.4142C24.0391 13.7893 23.5304 14 23 14C22.4696 14 21.9609 13.7893 21.5858 13.4142C21.2107 13.0391 21 12.5304 21 12ZM23 8C21.9391 8 20.9217 8.42143 20.1716 9.17157C19.4214 9.92172 19 10.9391 19 12C19 13.0609 19.4214 14.0783 20.1716 14.8284C20.9217 15.5786 21.9391 16 23 16C24.0609 16 25.0783 15.5786 25.8284 14.8284C26.5786 14.0783 27 13.0609 27 12C27 10.9391 26.5786 9.92172 25.8284 9.17157C25.0783 8.42143 24.0609 8 23 8ZM2 21C2 20.2044 2.31607 19.4413 2.87868 18.8787C3.44129 18.3161 4.20435 18 5 18H16C16.7956 18 17.5587 18.3161 18.1213 18.8787C18.6839 19.4413 19 20.2044 19 21V21.226C18.9977 21.3193 18.991 21.4124 18.98 21.505C18.96 21.678 18.923 21.913 18.85 22.191C18.6569 22.924 18.3171 23.6102 17.851 24.208C16.681 25.71 14.48 27 10.5 27C6.52 27 4.32 25.71 3.149 24.208C2.68257 23.6103 2.34236 22.9241 2.149 22.191C2.07314 21.8967 2.02428 21.5961 2.003 21.293L2.001 21.226V21.203L2 21.195V21ZM4 21.178V21.19C4 21.2073 4.003 21.2387 4.009 21.284C4.019 21.374 4.04 21.514 4.085 21.688C4.175 22.036 4.358 22.506 4.726 22.979C5.431 23.883 6.98 25 10.5 25C14.02 25 15.57 23.883 16.274 22.98C16.5723 22.5969 16.79 22.1574 16.914 21.688C16.9566 21.5247 16.9854 21.3581 17 21.19L17.001 21.178V21C17.001 20.7348 16.8956 20.4804 16.7081 20.2929C16.5206 20.1054 16.2662 20 16.001 20H5C4.73478 20 4.48043 20.1054 4.29289 20.2929C4.10536 20.4804 4 20.7348 4 21V21.178ZM19.477 24.492C20.407 24.808 21.564 25 23 25C26.201 25 28.02 24.047 29.013 22.875C29.496 22.305 29.743 21.727 29.868 21.283C29.9353 21.0449 29.9785 20.8007 29.997 20.554L29.998 20.518L29.999 20.496V20.458C29.9991 20.1353 29.9357 19.8157 29.8123 19.5174C29.6888 19.2192 29.5079 18.9483 29.2797 18.72C29.0515 18.4917 28.7806 18.3107 28.4825 18.1871C28.1843 18.0636 27.8647 18 27.542 18H19.353C19.853 18.559 20.216 19.243 20.388 20H27.542C27.792 20 27.994 20.199 28 20.446L27.996 20.49C27.984 20.5744 27.9666 20.6579 27.944 20.74C27.882 20.96 27.754 21.268 27.487 21.583C26.98 22.182 25.799 23 23 23C21.835 23 20.951 22.858 20.279 22.65C20.1016 23.2994 19.8315 23.9198 19.477 24.492Z" fill="#0B0B0B"/>
</svg>
