<svg width="32" height="32" viewBox="0 0 32 32" fill="none" xmlns="http://www.w3.org/2000/svg">
<path d="M20.8003 6.90039C24.5532 6.90046 27.7669 9.70955 27.7671 13.373C27.7671 15.8902 26.5884 18.0037 25.0366 19.7461C23.4919 21.4826 21.5016 22.9383 19.7085 24.1523L16.6167 26.2451H16.6157C16.4339 26.368 16.2199 26.4345 16.0005 26.4346C15.7809 26.4346 15.5662 26.3681 15.3843 26.2451L12.2925 24.1523C10.5008 22.9383 8.50849 21.4826 6.9624 19.7461C5.41196 18.0037 4.23389 15.8902 4.23389 13.373C4.23405 9.70966 7.44695 6.90062 11.1997 6.90039C13.1063 6.90039 14.7851 7.77813 16.0005 8.91992C17.2158 7.7783 18.8925 6.90039 20.8003 6.90039Z" fill="#0B0B0B" stroke="#0B0B0B" stroke-width="0.2"/>
</svg>
