<svg width="32" height="32" viewBox="0 0 32 32" fill="none" xmlns="http://www.w3.org/2000/svg">
<path d="M16.0068 2.84961C17.3189 2.84961 18.5866 3.53781 19.3105 4.80957L29.6338 22.8809C29.982 23.4822 30.1504 24.1413 30.1504 24.7861C30.1503 25.8564 29.783 26.8231 29.1143 27.5234C28.4445 28.2248 27.4799 28.6504 26.3037 28.6504H5.69629C4.52677 28.6504 3.56196 28.2254 2.89062 27.5244C2.22023 26.8244 1.84967 25.8571 1.84961 24.7861V24.7852C1.85102 24.1197 2.02976 23.4668 2.36621 22.8936L12.6895 4.80957V4.80859C13.4265 3.53758 14.708 2.84962 16.0068 2.84961ZM16.1572 26.2373H26.2773C27.1085 26.2372 27.6932 25.5474 27.6934 24.7861C27.6934 24.5707 27.6333 24.3131 27.5098 24.0625L17.2021 5.98047L17.2012 5.97949C16.965 5.55941 16.5776 5.3502 16.1572 5.31055V26.2373Z" fill="#0B0B0B" stroke="#0B0B0B" stroke-width="0.3"/>
</svg>
