<svg width="32" height="32" viewBox="0 0 32 32" fill="none" xmlns="http://www.w3.org/2000/svg">
<path d="M22.953 16.7937L27.6719 6.60116C28.1471 5.602 28.0878 4.86468 27.6121 4.3887C27.1252 3.90155 26.3878 3.86603 25.3898 4.31765L15.1795 9.06279L22.953 16.7937ZM26.008 24.4765C26.18 24.6478 26.4129 24.7441 26.6556 24.7441C26.8984 24.7441 27.1312 24.6478 27.3032 24.4765C27.4745 24.3044 27.5707 24.0714 27.5707 23.8285C27.5707 23.5856 27.4745 23.3526 27.3032 23.1805L8.99838 4.86468C8.64186 4.50795 8.05966 4.50795 7.69096 4.86468C7.34611 5.20974 7.34611 5.81614 7.69096 6.16121L26.008 24.4765ZM15.857 27.6166C16.4392 28.1874 17.2238 28.092 17.7943 27.5212C18.1153 27.2 18.3648 26.7006 18.5788 26.2251L20.8372 21.3247L10.6872 11.1448L5.77802 13.4162C5.31449 13.6303 4.80329 13.8922 4.48226 14.2012C3.90006 14.7721 3.81689 15.5693 4.38743 16.1396C4.81495 16.5563 5.21914 16.6872 6.0397 16.6872L15.0136 16.7465C15.0968 16.7465 15.1561 16.7582 15.2038 16.7942C15.2444 16.8536 15.2652 16.9243 15.2631 16.9962L15.3108 25.9638C15.3108 26.7844 15.4416 27.2126 15.8575 27.6171" fill="#0B0B0B"/>
</svg>
