<svg width="32" height="32" viewBox="0 0 32 32" fill="none" xmlns="http://www.w3.org/2000/svg">
<path d="M6.4 8.8C7.72548 8.8 8.8 7.72548 8.8 6.4C8.8 5.07452 7.72548 4 6.4 4C5.07452 4 4 5.07452 4 6.4C4 7.72548 5.07452 8.8 6.4 8.8Z" stroke="#0B0B0B" stroke-width="2" stroke-linecap="round" stroke-linejoin="round"/>
<path d="M18.4 7.6L22 4M22 4L25.6 7.6M22 4V18.4M18.4 13.6L22 10L25.6 13.6M22 18.4H10L4 28H28L22 18.4ZM11.2 18.4V28M12.4 18.4L18.4 28" stroke="#0B0B0B" stroke-width="2" stroke-linecap="round" stroke-linejoin="round"/>
</svg>
