<svg width="32" height="32" viewBox="0 0 32 32" fill="none" xmlns="http://www.w3.org/2000/svg">
<path d="M25.2856 14.1429C25.2856 13.63 25.7014 13.2143 26.2142 13.2143H28.0712C28.584 13.2143 28.9998 13.63 28.9998 14.1429C28.9998 14.6557 28.584 15.0714 28.0712 15.0714H26.2142C25.7014 15.0714 25.2856 14.6557 25.2856 14.1429ZM23.1565 8.84348C22.7939 8.48091 22.7939 7.89309 23.1565 7.53052L24.4694 6.21752C24.832 5.85494 25.4198 5.85494 25.7824 6.21752C26.145 6.58009 26.145 7.16791 25.7824 7.53048L24.4695 8.84348C24.1069 9.20606 23.519 9.20606 23.1565 8.84348ZM23.1565 20.7552C22.7939 20.3926 22.7939 19.8048 23.1565 19.4422C23.519 19.0797 24.1069 19.0797 24.4695 19.4422L25.7824 20.7552C26.145 21.1178 26.145 21.7056 25.7824 22.0682C25.4198 22.4308 24.832 22.4308 24.4694 22.0682L23.1565 20.7552ZM16.9288 3.92854C16.9288 3.41572 17.3445 3 17.8573 3C18.3701 3 18.7859 3.41572 18.7859 3.92854V5.78575C18.7859 6.29856 18.3701 6.71429 17.8573 6.71429C17.3445 6.71429 16.9288 6.29856 16.9288 5.78575V3.92854ZM17.8573 8.57143C17.546 8.57345 17.2354 8.60141 16.9288 8.655V10.5604C17.2314 10.477 17.5434 10.4327 17.8573 10.4286C18.8424 10.4286 19.7871 10.8199 20.4836 11.5165C21.1802 12.213 21.5715 13.1578 21.5715 14.1429C21.5715 15.1279 21.1802 16.0727 20.4836 16.7693C19.7871 17.4658 18.8424 17.8571 17.8573 17.8571V19.7143C19.3349 19.7143 20.752 19.1273 21.7968 18.0825C22.8416 17.0376 23.4285 15.6205 23.4285 14.1429C23.4285 12.6652 22.8416 11.2481 21.7968 10.2033C20.752 9.15842 19.3349 8.57143 17.8573 8.57143ZM10.429 19.8851V7.64286H8.57193V19.8851C7.95239 20.1042 7.43024 20.5352 7.09775 21.102C6.76526 21.6688 6.64385 22.3349 6.75497 22.9826C6.86609 23.6303 7.20258 24.2178 7.70499 24.6414C8.20739 25.0649 8.84335 25.2973 9.50047 25.2973C10.1576 25.2973 10.7935 25.0649 11.2959 24.6414C11.7983 24.2178 12.1348 23.6303 12.246 22.9826C12.3571 22.3349 12.2357 21.6688 11.9032 21.102C11.5707 20.5352 11.0485 20.1042 10.429 19.8851Z" fill="#0B0B0B"/>
<path d="M9.50058 29C8.22103 29.0014 6.96958 28.6248 5.90336 27.9173C4.83715 27.2099 4.00372 26.2032 3.50771 25.0237C3.0117 23.8441 2.87524 22.5443 3.11545 21.2875C3.35567 20.0306 3.96185 18.8728 4.85789 17.9593V7.64286C4.85789 6.41149 5.34702 5.23057 6.2177 4.35986C7.08837 3.48916 8.26926 3 9.50058 3C10.7319 3 11.9128 3.48916 12.7835 4.35986C13.6541 5.23057 14.1433 6.41149 14.1433 7.64286V17.9593C15.0393 18.8728 15.6455 20.0306 15.8857 21.2875C16.1259 22.5443 15.9895 23.8441 15.4934 25.0237C14.9974 26.2032 14.164 27.2099 13.0978 27.9173C12.0316 28.6248 10.7801 29.0014 9.50058 29ZM9.50058 4.85714C8.76201 4.85788 8.05391 5.15161 7.53167 5.67387C7.00942 6.19614 6.7157 6.90427 6.71496 7.64286V18.7699L6.40669 19.0476C5.70553 19.6743 5.21121 20.4991 4.98916 21.413C4.76711 22.3268 4.82781 23.2866 5.16321 24.1652C5.49861 25.0437 6.0929 25.7998 6.86742 26.3331C7.64194 26.8665 8.56018 27.1521 9.50058 27.1521C10.441 27.1521 11.3592 26.8665 12.1337 26.3331C12.9083 25.7998 13.5026 25.0437 13.838 24.1652C14.1734 23.2866 14.234 22.3268 14.012 21.413C13.7899 20.4991 13.2956 19.6743 12.5945 19.0476L12.2862 18.7699V7.64286C12.2855 6.90427 11.9917 6.19614 11.4695 5.67387C10.9472 5.15161 10.2391 4.85788 9.50058 4.85714Z" fill="#0B0B0B"/>
</svg>
