<svg width="32" height="32" viewBox="0 0 32 32" fill="none" xmlns="http://www.w3.org/2000/svg">
<path d="M5.3335 24.0001C5.3335 22.5856 5.8954 21.229 6.89559 20.2288C7.89579 19.2287 9.25234 18.6667 10.6668 18.6667H21.3335C22.748 18.6667 24.1045 19.2287 25.1047 20.2288C26.1049 21.229 26.6668 22.5856 26.6668 24.0001C26.6668 24.7073 26.3859 25.3856 25.8858 25.8857C25.3857 26.3858 24.7074 26.6667 24.0002 26.6667H8.00016C7.29292 26.6667 6.61464 26.3858 6.11454 25.8857C5.61445 25.3856 5.3335 24.7073 5.3335 24.0001Z" stroke="#0B0B0B" stroke-width="2.3" stroke-linejoin="round"/>
<path d="M16 13.3333C18.2091 13.3333 20 11.5424 20 9.33325C20 7.12411 18.2091 5.33325 16 5.33325C13.7909 5.33325 12 7.12411 12 9.33325C12 11.5424 13.7909 13.3333 16 13.3333Z" stroke="#0B0B0B" stroke-width="2.3"/>
</svg>
