<svg width="32" height="32" viewBox="0 0 32 32" fill="none" xmlns="http://www.w3.org/2000/svg">
<path d="M22.1111 27H9.88889M22.1111 27H23.0926C24.459 27 25.1422 27 25.6641 26.7336C26.1249 26.4989 26.4989 26.1249 26.7336 25.6653C27 25.1434 27 24.459 27 23.0926V12.6022C27 12.0522 27 11.7772 26.9413 11.5157C26.8893 11.2823 26.8033 11.0579 26.6859 10.8496C26.5563 10.6173 26.373 10.4157 26.0137 10.016L22.6464 6.27356C22.2297 5.81156 22.0182 5.57689 21.7652 5.40822C21.537 5.25681 21.285 5.14484 21.0197 5.077C20.7214 5 20.4 5 19.7583 5H8.91111C7.54222 5 6.85778 5 6.33467 5.26644C5.87469 5.50073 5.50073 5.87469 5.26644 6.33467C5 6.85778 5 7.54222 5 8.91111V23.0889C5 24.4578 5 25.1422 5.26644 25.6641C5.50111 26.1249 5.87389 26.4989 6.33467 26.7336C6.85656 27 7.541 27 8.90744 27H9.88889M22.1111 27V22.3519C22.1111 20.9854 22.1111 20.301 21.8447 19.7791C21.6099 19.319 21.2356 18.9451 20.7752 18.7109C20.2533 18.4444 19.5689 18.4444 18.2 18.4444H13.8C12.4311 18.4444 11.7467 18.4444 11.2236 18.7109C10.7636 18.9452 10.3896 19.3191 10.1553 19.7791C9.88889 20.3022 9.88889 20.9867 9.88889 22.3556V27M19.6667 9.88889H12.3333" stroke="#0B0B0B" stroke-width="2.5" stroke-linecap="round" stroke-linejoin="round"/>
</svg>
