<svg width="32" height="32" viewBox="0 0 32 32" fill="none" xmlns="http://www.w3.org/2000/svg">
<path d="M16 2.90039C16.4575 2.90039 16.8962 3.08177 17.2197 3.40527C17.5432 3.72877 17.7246 4.1675 17.7246 4.625V14.2754H27.375C27.8325 14.2754 28.2712 14.4568 28.5947 14.7803C28.9182 15.1038 29.0996 15.5425 29.0996 16C29.0996 16.4575 28.9182 16.8962 28.5947 17.2197C28.2712 17.5432 27.8325 17.7246 27.375 17.7246H17.7246V27.375C17.7246 27.8325 17.5432 28.2712 17.2197 28.5947C16.8962 28.9182 16.4575 29.0996 16 29.0996C15.5425 29.0996 15.1038 28.9182 14.7803 28.5947C14.4568 28.2712 14.2754 27.8325 14.2754 27.375V17.7246H4.625C4.1675 17.7246 3.72877 17.5432 3.40527 17.2197C3.08177 16.8962 2.90039 16.4575 2.90039 16C2.90039 15.5425 3.08177 15.1038 3.40527 14.7803C3.72877 14.4568 4.1675 14.2754 4.625 14.2754H14.2754V4.625C14.2754 4.1675 14.4568 3.72877 14.7803 3.40527C15.1038 3.08177 15.5425 2.90039 16 2.90039Z" fill="#0B0B0B" stroke="#0B0B0B" stroke-width="0.2"/>
</svg>
