<svg width="32" height="32" viewBox="0 0 32 32" fill="none" xmlns="http://www.w3.org/2000/svg">
<path d="M11.6484 3.99805C11.8931 3.89421 12.1649 3.87233 12.4229 3.93652C12.6808 4.00077 12.9107 4.14708 13.0781 4.35352L13.1855 4.50586C13.2809 4.66565 13.34 4.84541 13.3574 5.03223C13.3807 5.28142 13.3292 5.53242 13.209 5.75195C12.3493 7.32921 11.8997 9.09727 11.9033 10.8936L11.918 11.4502C12.2093 17.167 16.9631 21.7088 22.7812 21.709C23.5666 21.708 24.3266 21.6291 25.0605 21.4717C25.3062 21.4191 25.5618 21.44 25.7959 21.5312C26.03 21.6226 26.2327 21.7803 26.3779 21.9854L26.4316 22.0674C26.5504 22.2648 26.6106 22.493 26.6025 22.7246C26.5933 22.9892 26.4963 23.2436 26.3271 23.4473L26.3262 23.4463C25.1402 24.9025 23.6451 26.0769 21.9482 26.8818C20.2512 27.6868 18.3958 28.1014 16.5176 28.0986H16.5166C9.54658 28.0983 3.90039 22.4842 3.90039 15.5645C3.90053 10.3564 7.09742 5.88991 11.6484 3.99707V3.99805ZM11.083 6.19434C9.47432 7.11341 8.12756 8.43137 7.17383 10.0234C6.17076 11.6979 5.63972 13.6126 5.6377 15.5645C5.6377 21.5387 10.5117 26.3789 16.5176 26.3789C17.9555 26.381 19.3801 26.0984 20.708 25.5469C21.9461 25.0326 23.0743 24.2906 24.043 23.3662C23.628 23.4077 23.2072 23.4307 22.7812 23.4307C15.8113 23.4304 10.1662 17.8151 10.166 10.8955C10.166 9.23386 10.4907 7.64678 11.083 6.19434Z" fill="#0B0B0B" stroke="#0B0B0B" stroke-width="0.2"/>
<path d="M20.1926 8.72178C20.2141 8.65682 20.2555 8.60029 20.311 8.56022C20.3665 8.52016 20.4332 8.49859 20.5016 8.49859C20.57 8.49859 20.6367 8.52016 20.6922 8.56022C20.7477 8.60029 20.7891 8.65682 20.8106 8.72178L21.3912 10.4648C21.6507 11.2418 22.2597 11.8508 23.0368 12.1103L24.78 12.6908C24.8449 12.7123 24.9015 12.7538 24.9415 12.8093C24.9816 12.8647 25.0032 12.9314 25.0032 12.9998C25.0032 13.0683 24.9816 13.135 24.9415 13.1904C24.9015 13.2459 24.8449 13.2873 24.78 13.3088L23.0368 13.8894C22.6533 14.0166 22.3049 14.2316 22.0192 14.5173C21.7335 14.803 21.5184 15.1514 21.3912 15.5349L20.8106 17.2779C20.7891 17.3429 20.7477 17.3994 20.6922 17.4395C20.6367 17.4795 20.57 17.5011 20.5016 17.5011C20.4332 17.5011 20.3665 17.4795 20.311 17.4395C20.2555 17.3994 20.2141 17.3429 20.1926 17.2779L19.612 15.5349C19.4847 15.1514 19.2697 14.803 18.984 14.5173C18.6983 14.2316 18.3498 14.0166 17.9664 13.8894L16.2232 13.3088C16.1582 13.2873 16.1017 13.2459 16.0616 13.1904C16.0216 13.135 16 13.0683 16 12.9998C16 12.9314 16.0216 12.8647 16.0616 12.8093C16.1017 12.7538 16.1582 12.7123 16.2232 12.6908L17.9664 12.1103C18.3498 11.9831 18.6983 11.768 18.984 11.4824C19.2697 11.1967 19.4847 10.8482 19.612 10.4648L20.1926 8.72178ZM24.7965 4.14821C24.8113 4.1055 24.839 4.06846 24.8759 4.04225C24.9127 4.01604 24.9568 4.00195 25.002 4.00195C25.0472 4.00195 25.0913 4.01604 25.1281 4.04225C25.165 4.06846 25.1927 4.1055 25.2075 4.14821L25.5945 5.30923C25.7671 5.82823 26.1736 6.23474 26.6926 6.40724L27.8538 6.79425C27.8965 6.80906 27.9335 6.8368 27.9597 6.87363C27.9859 6.91046 28 6.95455 28 6.99975C28 7.04496 27.9859 7.08904 27.9597 7.12587C27.9335 7.1627 27.8965 7.19045 27.8538 7.20526L26.6926 7.59226C26.4371 7.67776 26.2049 7.82145 26.0143 8.01199C25.8237 8.20254 25.6801 8.43473 25.5945 8.69028L25.2075 9.85129C25.1927 9.89401 25.165 9.93104 25.1281 9.95725C25.0913 9.98347 25.0472 9.99755 25.002 9.99755C24.9568 9.99755 24.9127 9.98347 24.8759 9.95725C24.839 9.93104 24.8113 9.89401 24.7965 9.85129L24.4094 8.69028C24.3239 8.43473 24.1802 8.20254 23.9897 8.01199C23.7991 7.82145 23.5669 7.67776 23.3113 7.59226L22.1502 7.20526C22.1075 7.19045 22.0705 7.1627 22.0443 7.12587C22.0181 7.08904 22.004 7.04496 22.004 6.99975C22.004 6.95455 22.0181 6.91046 22.0443 6.87363C22.0705 6.8368 22.1075 6.80906 22.1502 6.79425L23.3113 6.40724C23.8304 6.23474 24.2369 5.82823 24.4094 5.30923L24.7965 4.14821Z" fill="#0B0B0B"/>
</svg>
