<svg width="32" height="32" viewBox="0 0 32 32" fill="none" xmlns="http://www.w3.org/2000/svg">
<path d="M10.7961 21.614C11.1488 21.8623 11.5698 21.9951 12.0011 21.994C12.4324 21.9929 12.8527 21.858 13.2041 21.608C13.5601 21.348 13.8301 20.988 13.9781 20.572L14.8721 17.826C15.101 17.1374 15.4871 16.5116 15.9998 15.9982C16.5126 15.4847 17.1379 15.0978 17.8261 14.868L20.6081 13.968C21.0195 13.8191 21.3737 13.5449 21.6209 13.184C21.8681 12.8231 21.9959 12.3937 21.9861 11.9564C21.9764 11.5191 21.8297 11.0958 21.5667 10.7463C21.3037 10.3967 20.9377 10.1385 20.5201 10.008L17.7701 9.11199C17.0811 8.88354 16.4548 8.4976 15.941 7.98483C15.4272 7.47205 15.04 6.84655 14.8101 6.15799L13.9061 3.38199C13.7606 2.97302 13.4912 2.61958 13.1354 2.37086C12.7796 2.12213 12.3551 1.99048 11.921 1.99422C11.4869 1.99796 11.0648 2.1369 10.7134 2.39173C10.3619 2.64655 10.0986 3.00457 9.96014 3.41599L9.04614 6.21599C8.81722 6.88601 8.43901 7.49523 7.94008 7.99763C7.44115 8.50002 6.83456 8.88244 6.16614 9.11599L3.38614 10.01C2.97733 10.1559 2.62408 10.4254 2.37544 10.7812C2.12679 11.137 1.99509 11.5613 1.9986 11.9954C2.00212 12.4294 2.14069 12.8516 2.39507 13.2033C2.64945 13.555 3.00702 13.8188 3.41814 13.958L6.16614 14.848C6.85806 15.0781 7.48642 15.4672 8.0008 15.984C8.51519 16.5008 8.9013 17.131 9.12814 17.824L10.0321 20.606C10.1761 21.014 10.4441 21.366 10.7961 21.614ZM10.9661 6.78399L12.0201 4.02999L12.9001 6.78399C13.2273 7.77007 13.7806 8.66596 14.5158 9.40008C15.2509 10.1342 16.1476 10.6862 17.1341 11.012L19.9461 12.072L17.1821 12.966C16.1966 13.2946 15.3012 13.8483 14.5669 14.5833C13.8327 15.3182 13.2798 16.2141 12.9521 17.2L11.9061 19.956L11.0081 17.2C10.6857 16.2142 10.1379 15.3171 9.40814 14.58C8.6707 13.8432 7.77254 13.2873 6.78414 12.956L4.02814 11.912L6.80014 11.012C7.77345 10.675 8.6562 10.1187 9.38014 9.38599C10.0986 8.65038 10.6408 7.75942 10.9661 6.78399ZM23.0701 29.7C23.2747 29.8438 23.51 29.9381 23.7573 29.9753C24.0046 30.0125 24.2571 29.9917 24.495 29.9145C24.7328 29.8373 24.9495 29.7058 25.1278 29.5304C25.306 29.355 25.441 29.1406 25.5221 28.904L26.0181 27.38C26.1241 27.064 26.3041 26.776 26.5381 26.54C26.7741 26.3 27.0621 26.124 27.3781 26.02L28.9221 25.516C29.2408 25.406 29.5165 25.1983 29.71 24.9223C29.9036 24.6464 30.005 24.3163 29.9999 23.9793C29.9948 23.6423 29.8834 23.3155 29.6816 23.0456C29.4798 22.7756 29.1979 22.5763 28.8761 22.476L27.3481 21.976C27.0319 21.8709 26.7443 21.6936 26.5083 21.4583C26.2723 21.223 26.0942 20.936 25.9881 20.62L25.4841 19.074C25.3759 18.756 25.1704 18.4802 24.8966 18.2855C24.6229 18.0909 24.2948 17.9873 23.9589 17.9896C23.6231 17.9918 23.2964 18.0996 23.0252 18.2979C22.7541 18.4961 22.5522 18.7746 22.4481 19.094L21.9541 20.618C21.8523 20.9317 21.6793 21.2175 21.4485 21.4531C21.2178 21.6887 20.9356 21.8677 20.6241 21.976L19.0781 22.48C18.76 22.5878 18.4839 22.793 18.2889 23.0665C18.0939 23.34 17.99 23.6679 17.9917 24.0038C17.9935 24.3396 18.1009 24.6664 18.2988 24.9379C18.4967 25.2093 18.7749 25.4115 19.0941 25.516L20.6201 26.01C20.9401 26.118 21.2281 26.296 21.4641 26.532C21.7021 26.77 21.8781 27.058 21.9801 27.376L22.4861 28.924C22.5957 29.2369 22.7998 29.5081 23.0701 29.7ZM21.2441 24.114L20.8861 23.996L21.2541 23.868C21.8606 23.6579 22.4105 23.311 22.8614 22.8543C23.3123 22.3975 23.6519 21.8431 23.8541 21.234L23.9701 20.878L24.0901 21.24C24.2941 21.8531 24.6381 22.4102 25.095 22.8671C25.5519 23.324 26.109 23.6681 26.7221 23.872L27.1121 23.998L26.7521 24.118C26.1376 24.3222 25.5794 24.6672 25.1221 25.1256C24.6647 25.584 24.3209 26.143 24.1181 26.758L24.0001 27.12L23.8841 26.76C23.6817 26.1432 23.3374 25.5825 22.8789 25.1229C22.4204 24.6634 21.8605 24.3178 21.2441 24.114Z" fill="#0B0B0B"/>
</svg>
