<svg width="32" height="32" viewBox="0 0 32 32" fill="none" xmlns="http://www.w3.org/2000/svg">
<path d="M25.3333 4H6.66667C5.2 4 4 5.2 4 6.66667V25.3333C4 26.8 5.2 28 6.66667 28H25.3333C26.8 28 28 26.8 28 25.3333V6.66667C28 5.2 26.8 4 25.3333 4ZM9 9.33333H13.6667C14.2133 9.33333 14.6667 9.78667 14.6667 10.3333C14.6667 10.88 14.2133 11.3333 13.6667 11.3333H9C8.45333 11.3333 8 10.88 8 10.3333C8 9.78667 8.45333 9.33333 9 9.33333ZM24 25.3333H6.66667L25.3333 6.66667V24C25.3333 24.7333 24.7333 25.3333 24 25.3333ZM19.3333 21.3333V23C19.3333 23.5467 19.7867 24 20.3333 24C20.88 24 21.3333 23.5467 21.3333 23V21.3333H23C23.5467 21.3333 24 20.88 24 20.3333C24 19.7867 23.5467 19.3333 23 19.3333H21.3333V17.6667C21.3333 17.12 20.88 16.6667 20.3333 16.6667C19.7867 16.6667 19.3333 17.12 19.3333 17.6667V19.3333H17.6667C17.12 19.3333 16.6667 19.7867 16.6667 20.3333C16.6667 20.88 17.12 21.3333 17.6667 21.3333H19.3333Z" fill="#0B0B0B"/>
</svg>
