<svg width="32" height="32" viewBox="0 0 32 32" fill="none" xmlns="http://www.w3.org/2000/svg">
<path d="M16.5004 24.5999C14.5074 24.6027 12.5839 23.8679 11.1004 22.5371C10.25 21.7782 9.56975 20.8479 9.10441 19.8074C8.63907 18.7669 8.39914 17.6397 8.4004 16.4999C8.4004 14.101 9.44395 11.945 11.1004 10.4627C12.5839 9.13193 14.5074 8.39716 16.5004 8.39991V24.5999Z" fill="#0B0B0B"/>
<path fill-rule="evenodd" clip-rule="evenodd" d="M3 16.5C3 9.04395 9.04395 3 16.5 3C23.9561 3 30 9.04395 30 16.5C30 23.9561 23.9561 30 16.5 30C9.04395 30 3 23.9561 3 16.5ZM16.5 27.3C13.6357 27.3 10.8886 26.1621 8.86325 24.1368C6.83785 22.1114 5.7 19.3643 5.7 16.5C5.7 13.6357 6.83785 10.8886 8.86325 8.86325C10.8886 6.83785 13.6357 5.7 16.5 5.7C19.3643 5.7 22.1114 6.83785 24.1368 8.86325C26.1621 10.8886 27.3 13.6357 27.3 16.5C27.3 19.3643 26.1621 22.1114 24.1368 24.1368C22.1114 26.1621 19.3643 27.3 16.5 27.3Z" fill="#0B0B0B"/>
</svg>
