<svg width="32" height="32" viewBox="0 0 32 32" fill="none" xmlns="http://www.w3.org/2000/svg">
<path d="M14.5191 3C20.8777 3 26.0383 8.16058 26.0383 14.5191C26.0383 20.8777 20.8777 26.0383 14.5191 26.0383C8.16058 26.0383 3 20.8777 3 14.5191C3 8.16058 8.16058 3 14.5191 3ZM14.5191 23.4785C19.4685 23.4785 23.4785 19.4685 23.4785 14.5191C23.4785 9.56975 19.4685 5.55981 14.5191 5.55981C9.56975 5.55981 5.55981 9.56975 5.55981 14.5191C5.55981 19.4685 9.56975 23.4785 14.5191 23.4785ZM24.6722 24.2763C25.0626 23.8859 25.6957 23.8858 26.0863 24.2762L28.2926 26.4818C28.6833 26.8723 28.6833 27.5056 28.2928 27.8962L27.8962 28.2928C27.5056 28.6833 26.8723 28.6833 26.4818 28.2926L24.2762 26.0863C23.8858 25.6957 23.8859 25.0626 24.2763 24.6722L24.6722 24.2763Z" fill="#0B0B0B"/>
</svg>
