<svg width="32" height="32" viewBox="0 0 32 32" fill="none" xmlns="http://www.w3.org/2000/svg">
<path d="M16.0002 2.66675C12.3242 2.66675 9.3335 5.65741 9.3335 9.33341V13.3334H8.00016C7.29292 13.3334 6.61464 13.6144 6.11454 14.1145C5.61445 14.6146 5.3335 15.2928 5.3335 16.0001V26.6667C5.3335 27.374 5.61445 28.0523 6.11454 28.5524C6.61464 29.0525 7.29292 29.3334 8.00016 29.3334H24.0002C24.7074 29.3334 25.3857 29.0525 25.8858 28.5524C26.3859 28.0523 26.6668 27.374 26.6668 26.6667V16.0001C26.6668 15.2928 26.3859 14.6146 25.8858 14.1145C25.3857 13.6144 24.7074 13.3334 24.0002 13.3334H22.6668V9.33341C22.6668 5.65741 19.6762 2.66675 16.0002 2.66675ZM12.0002 9.33341C12.0002 7.12808 13.7948 5.33341 16.0002 5.33341C18.2055 5.33341 20.0002 7.12808 20.0002 9.33341V13.3334H12.0002V9.33341ZM17.3335 23.6307V26.6667H14.6668V23.6307C14.2007 23.3638 13.8264 22.9618 13.5933 22.4779C13.3602 21.9939 13.2792 21.4507 13.3611 20.9198C13.4429 20.3889 13.6838 19.8953 14.0518 19.504C14.4199 19.1127 14.8979 18.8422 15.4228 18.7281C15.8127 18.6419 16.217 18.6443 16.6058 18.7351C16.9947 18.826 17.3581 19.0029 17.6695 19.253C17.9808 19.503 18.232 19.8197 18.4047 20.1798C18.5773 20.5399 18.6669 20.9341 18.6668 21.3334C18.6661 21.7997 18.5424 22.2576 18.3083 22.6609C18.0743 23.0643 17.738 23.3988 17.3335 23.6307Z" fill="#0B0B0B"/>
</svg>
