<svg width="32" height="32" viewBox="0 0 32 32" fill="none" xmlns="http://www.w3.org/2000/svg">
<path d="M16 6.12451C16.4586 6.12451 16.8672 6.50567 16.8672 7.00049V24.9995C16.8672 25.4915 16.4614 25.8862 16 25.8862C15.536 25.8862 15.1426 25.4889 15.1426 24.9995V7.00049C15.1426 6.50827 15.5388 6.12451 16 6.12451ZM10.1289 9.6792C10.8955 9.67926 11.4988 9.88449 11.9082 10.3218C12.3158 10.7573 12.5068 11.398 12.5068 12.2183V19.7612C12.5068 20.5915 12.3161 21.2347 11.9082 21.6704C11.4985 22.108 10.895 22.31 10.1289 22.3101H3.22852C2.46253 22.31 1.85898 22.1085 1.44922 21.6714C1.04123 21.2359 0.849618 20.5923 0.849609 19.7622V12.2183C0.849609 11.3978 1.04147 10.7564 1.44922 10.3208C1.8587 9.88361 2.46196 9.67892 3.22852 9.6792H10.1289ZM28.7715 9.6792C29.5382 9.67921 30.1413 9.88444 30.5508 10.3218C30.9585 10.7573 31.1504 11.3979 31.1504 12.2183V19.7612C31.1504 20.5917 30.9588 21.2357 30.5508 21.6714C30.141 22.1088 29.5375 22.31 28.7715 22.3101H21.8721C21.106 22.3101 20.5025 22.1087 20.0928 21.6714C19.6848 21.2358 19.4932 20.5923 19.4932 19.7622V12.2183C19.4932 11.3981 19.685 10.7573 20.0928 10.3218C20.5023 9.88444 21.1053 9.6792 21.8721 9.6792H28.7715ZM3.34473 11.5679C3.08634 11.5679 2.91177 11.6388 2.7998 11.7603C2.68589 11.8839 2.61335 12.0856 2.61328 12.396V19.603C2.61328 19.9077 2.68595 20.1074 2.7998 20.23C2.91181 20.3504 3.08628 20.4214 3.34473 20.4214H10.0117C10.2699 20.4214 10.4445 20.3505 10.5566 20.23C10.6706 20.1073 10.7432 19.9076 10.7432 19.603V12.396C10.7431 12.0855 10.6706 11.8839 10.5566 11.7603C10.4447 11.6388 10.2704 11.5679 10.0117 11.5679H3.34473Z" fill="black" stroke="black" stroke-width="0.3"/>
</svg>
