<svg width="32" height="32" viewBox="0 0 32 32" fill="none" xmlns="http://www.w3.org/2000/svg">
<path d="M12.3398 18.6733C13.6278 18.6733 14.6732 19.7173 14.6732 21.0067V25.6707C14.6732 26.2895 14.4273 26.883 13.9898 27.3206C13.5522 27.7582 12.9587 28.004 12.3398 28.004H4.99984C4.38123 28.004 3.78794 27.7584 3.35039 27.3211C2.91285 26.8838 2.66686 26.2906 2.6665 25.672V21.008C2.6665 19.7187 3.71184 18.6747 4.99984 18.6747L12.3398 18.6733ZM26.9998 18.6733C28.2878 18.6733 29.3332 19.7173 29.3332 21.0067V25.6707C29.3332 26.2895 29.0873 26.883 28.6498 27.3206C28.2122 27.7582 27.6187 28.004 26.9998 28.004H19.6598C19.041 28.004 18.4475 27.7582 18.0099 27.3206C17.5723 26.883 17.3265 26.2895 17.3265 25.6707V21.0067C17.3265 19.7173 18.3718 18.6733 19.6598 18.6733H26.9998ZM12.3398 20.6733H4.99984C4.91143 20.6733 4.82665 20.7085 4.76414 20.771C4.70162 20.8335 4.6665 20.9183 4.6665 21.0067V25.6707C4.6665 25.856 4.81584 26.004 4.99984 26.004H12.3398C12.4282 26.004 12.513 25.9689 12.5755 25.9064C12.6381 25.8439 12.6732 25.7591 12.6732 25.6707V21.0067C12.6732 20.9183 12.6381 20.8335 12.5755 20.771C12.513 20.7085 12.4282 20.6733 12.3398 20.6733ZM26.9998 20.6733H19.6598C19.5714 20.6733 19.4866 20.7085 19.4241 20.771C19.3616 20.8335 19.3265 20.9183 19.3265 21.0067V25.6707C19.3265 25.856 19.4758 26.004 19.6598 26.004H26.9998C27.0882 26.004 27.173 25.9689 27.2355 25.9064C27.2981 25.8439 27.3332 25.7591 27.3332 25.6707V21.0067C27.3332 20.9183 27.2981 20.8335 27.2355 20.771C27.173 20.7085 27.0882 20.6733 26.9998 20.6733ZM26.9998 4C28.2878 4 29.3332 5.04533 29.3332 6.33333V13.6667C29.3332 14.2855 29.0873 14.879 28.6498 15.3166C28.2122 15.7542 27.6187 16 26.9998 16H4.99984C4.381 16 3.78751 15.7542 3.34992 15.3166C2.91234 14.879 2.6665 14.2855 2.6665 13.6667V6.33333C2.66653 5.74775 2.88673 5.18358 3.28341 4.75281C3.68009 4.32205 4.22424 4.05619 4.80784 4.008L4.99984 4H26.9998ZM26.9998 6H4.99984L4.92384 6.00933C4.85072 6.02646 4.78552 6.06777 4.73882 6.12657C4.69211 6.18538 4.66663 6.25824 4.6665 6.33333V13.6667C4.6665 13.8507 4.81584 14 4.99984 14H26.9998C27.0882 14 27.173 13.9649 27.2355 13.9024C27.2981 13.8399 27.3332 13.7551 27.3332 13.6667V6.33333C27.3332 6.24493 27.2981 6.16014 27.2355 6.09763C27.173 6.03512 27.0882 6 26.9998 6Z" fill="#0B0B0B"/>
</svg>
