<svg width="32" height="32" viewBox="0 0 32 32" fill="none" xmlns="http://www.w3.org/2000/svg">
<path d="M11.5333 26.6667H8C7.26667 26.6667 6.63911 26.4058 6.11733 25.884C5.59467 25.3613 5.33333 24.7333 5.33333 24V20.4667L2.76667 17.8667C2.25556 17.3556 2 16.7333 2 16C2 15.2667 2.25556 14.6444 2.76667 14.1333L5.33333 11.5333V8C5.33333 7.26667 5.59467 6.63911 6.11733 6.11733C6.63911 5.59467 7.26667 5.33333 8 5.33333H11.5333L14.1333 2.76667C14.6444 2.25556 15.2667 2 16 2C16.7333 2 17.3556 2.25556 17.8667 2.76667L20.4667 5.33333H24C24.7333 5.33333 25.3613 5.59467 25.884 6.11733C26.4058 6.63911 26.6667 7.26667 26.6667 8V11.5333L29.2333 14.1333C29.7444 14.6444 30 15.2667 30 16C30 16.7333 29.7444 17.3556 29.2333 17.8667L26.6667 20.4667V24C26.6667 24.7333 26.4058 25.3613 25.884 25.884C25.3613 26.4058 24.7333 26.6667 24 26.6667H20.4667L17.8667 29.2333C17.3556 29.7444 16.7333 30 16 30C15.2667 30 14.6444 29.7444 14.1333 29.2333L11.5333 26.6667ZM16 22.6667C17.8444 22.6667 19.4169 22.0164 20.7173 20.716C22.0169 19.4164 22.6667 17.8444 22.6667 16C22.6667 14.1556 22.0169 12.5831 20.7173 11.2827C19.4169 9.98311 17.8444 9.33333 16 9.33333C14.1556 9.33333 12.5836 9.98311 11.284 11.2827C9.98356 12.5831 9.33333 14.1556 9.33333 16C9.33333 17.8444 9.98356 19.4164 11.284 20.716C12.5836 22.0164 14.1556 22.6667 16 22.6667Z" fill="#0B0B0B"/>
</svg>
