<svg width="32" height="32" viewBox="0 0 32 32" fill="none" xmlns="http://www.w3.org/2000/svg">
<path d="M20.8003 6.90039C24.5532 6.90046 27.7669 9.70955 27.7671 13.373C27.7671 15.8695 26.702 18.0595 25.2358 19.9053C23.7739 21.7453 21.8608 23.305 20.0356 24.5703C19.3366 25.0542 18.63 25.5012 17.979 25.832C17.3732 26.1409 16.6591 26.4335 16.0005 26.4336C15.3418 26.4336 14.6281 26.1409 14.021 25.832L14.02 25.8311C13.3087 25.456 12.6228 25.0347 11.9663 24.5703L11.2778 24.082C9.66831 22.9106 8.04449 21.5154 6.76416 19.9053C5.29803 18.0595 4.23389 15.8695 4.23389 13.373C4.23405 9.70966 7.44695 6.90062 11.1997 6.90039C13.1063 6.90039 14.7851 7.77813 16.0005 8.91992C17.2158 7.7783 18.8925 6.90039 20.8003 6.90039ZM20.8003 9.09961C19.2473 9.09961 17.7857 10.0293 16.8726 11.2197C16.7699 11.3534 16.6379 11.4616 16.4868 11.5361C16.3356 11.6107 16.1691 11.6494 16.0005 11.6494C15.8318 11.6494 15.6645 11.6108 15.5132 11.5361C15.3621 11.4615 15.23 11.3534 15.1274 11.2197C14.2143 10.0293 12.754 9.09961 11.1997 9.09961C8.47409 9.09983 6.43328 11.1027 6.43311 13.373C6.43311 15.214 7.21567 16.9356 8.48682 18.5352C9.76085 20.1376 11.4783 21.5565 13.2183 22.7617C13.8763 23.2177 14.4923 23.6029 15.02 23.8721C15.3019 24.0157 15.5232 24.1064 15.687 24.1611C15.8532 24.2167 15.9548 24.2334 16.0005 24.2334C16.0463 24.2333 16.1479 24.2168 16.314 24.1611C16.3959 24.1337 16.4921 24.0974 16.603 24.0498L16.981 23.8711C17.6047 23.5407 18.2068 23.1707 18.7827 22.7627V22.7617C20.5215 21.5564 22.2401 20.139 23.5142 18.5352C24.7853 16.9357 25.5669 15.2139 25.5669 13.373C25.5667 11.1026 23.5261 9.09967 20.8003 9.09961Z" fill="#0B0B0B" stroke="#0B0B0B" stroke-width="0.2"/>
</svg>
