<svg width="32" height="32" viewBox="0 0 32 32" fill="none" xmlns="http://www.w3.org/2000/svg">
<path d="M15.768 5.66127C16.6455 5.66096 17.5095 5.87717 18.2835 6.29074C19.0574 6.70431 19.7173 7.30245 20.2048 8.03213C20.6922 8.76182 20.992 9.6005 21.0777 10.4738C21.1634 11.3471 21.0323 12.2281 20.696 13.0386C19.5842 13.1564 18.5094 13.5061 17.5411 14.0651C16.5729 14.6241 15.7326 15.38 15.0746 16.2839C13.7913 16.1151 12.613 15.4855 11.7593 14.5124C10.9057 13.5393 10.4349 12.2891 10.4346 10.9946C10.4346 9.58012 10.9966 8.22356 11.9967 7.22337C12.9969 6.22317 14.3535 5.66127 15.768 5.66127ZM23.4533 13.2239C23.7982 12.0323 23.8612 10.7768 23.6374 9.55658C23.4135 8.33639 22.909 7.18497 22.1636 6.19331C21.4183 5.20165 20.4525 4.39692 19.3426 3.84271C18.2327 3.2885 17.0092 3 15.7686 3C14.5281 3 13.3046 3.2885 12.1947 3.84271C11.0848 4.39692 10.119 5.20165 9.37367 6.19331C8.6283 7.18497 8.12377 8.33639 7.89994 9.55658C7.67611 10.7768 7.73912 12.0323 8.08398 13.2239C6.87955 13.521 5.76071 14.0942 4.81588 14.8981C3.87105 15.702 3.12612 16.7146 2.63995 17.8559C2.15377 18.9972 1.93969 20.2359 2.0146 21.4742C2.08951 22.7125 2.45138 23.9164 3.07159 24.9907C3.69181 26.0651 4.55338 26.9805 5.58823 27.6647C6.62309 28.3488 7.80286 28.7829 9.03433 28.9326C10.2658 29.0823 11.5152 28.9437 12.6839 28.5275C13.8525 28.1113 14.9084 27.429 15.768 26.5346C16.6276 27.4289 17.6834 28.111 18.852 28.5271C20.0205 28.9432 21.2699 29.0819 22.5012 28.9322C23.7326 28.7824 24.9123 28.3484 25.9471 27.6644C26.9819 26.9804 27.8434 26.0651 28.4637 24.9908C29.0839 23.9166 29.4458 22.7128 29.5209 21.4747C29.5959 20.2365 29.382 18.9978 28.8961 17.8566C28.4101 16.7153 27.6654 15.7026 26.7208 14.8986C25.7762 14.0946 24.6576 13.5213 23.4533 13.2239ZM17.3067 24.2399C17.7603 23.2184 17.9947 22.113 17.9947 20.9953C17.9947 19.8775 17.7603 18.7722 17.3067 17.7506C17.9848 16.8656 18.9232 16.2153 19.99 15.8911C21.0567 15.5669 22.1983 15.5851 23.2542 15.9431C24.3101 16.3012 25.2273 16.981 25.8769 17.8872C26.5265 18.7934 26.8758 19.8803 26.8758 20.9953C26.8758 22.1102 26.5265 23.1972 25.8769 24.1033C25.2273 25.0095 24.3101 25.6894 23.2542 26.0474C22.1983 26.4054 21.0567 26.4236 19.99 26.0994C18.9232 25.7752 17.9848 25.1249 17.3067 24.2399ZM14.92 18.9506C15.3473 19.9805 15.4411 21.1183 15.1884 22.2043C14.9356 23.2903 14.3489 24.2697 13.5108 25.0051C12.6726 25.7404 11.6251 26.1946 10.5155 26.3039C9.40588 26.4132 8.2899 26.1721 7.32439 25.6144C6.35888 25.0567 5.59238 24.2106 5.13259 23.1948C4.67281 22.179 4.54287 21.0447 4.76101 19.9512C4.97916 18.8578 5.53444 17.8602 6.34881 17.0986C7.16319 16.337 8.19572 15.8498 9.30132 15.7053C9.95914 16.6091 10.7992 17.3648 11.7672 17.9238C12.7352 18.4828 13.8084 18.8326 14.92 18.9506Z" fill="#0B0B0B"/>
</svg>
