<svg width="32" height="32" viewBox="0 0 32 32" fill="none" xmlns="http://www.w3.org/2000/svg">
<path fill-rule="evenodd" clip-rule="evenodd" d="M28.7277 3.27177C28.855 3.39896 28.9426 3.56039 28.9799 3.73644C29.0171 3.9125 29.0024 4.09558 28.9376 4.26343L19.6531 28.4049C19.5873 28.5757 19.4726 28.7233 19.3233 28.8291C19.1739 28.9349 18.9966 28.9942 18.8137 28.9996C18.6308 29.005 18.4503 28.9561 18.295 28.8592C18.1398 28.7623 18.0166 28.6217 17.941 28.455L14.0582 19.9127L19.77 14.1986C20.016 13.9345 20.15 13.5853 20.1436 13.2245C20.1372 12.8637 19.9911 12.5194 19.7359 12.2642C19.4807 12.0091 19.1365 11.8629 18.7757 11.8565C18.4149 11.8502 18.0657 11.9841 17.8017 12.2301L12.088 17.9424L3.5463 14.0612C3.37911 13.9856 3.23805 13.8623 3.14089 13.7067C3.04374 13.5511 2.99486 13.3702 3.00043 13.1868C3.00599 13.0034 3.06574 12.8258 3.17215 12.6764C3.27855 12.5269 3.42684 12.4123 3.59829 12.3471L27.738 3.06193C27.9056 2.99744 28.0883 2.98294 28.264 3.02019C28.4396 3.05743 28.6007 3.14483 28.7277 3.27177Z" fill="#0B0B0B"/>
</svg>
