<svg width="32" height="32" viewBox="0 0 32 32" fill="none" xmlns="http://www.w3.org/2000/svg">
<path d="M20.7285 4.84864L18.8998 5.85969L20.7285 6.87074L21.7287 8.71938L22.7288 6.87074L24.5575 5.85969L22.7288 4.84864L21.7287 3L20.7285 4.84864ZM13.7723 5.90241C12.0952 6.24643 10.53 7.0097 9.21964 8.12253C7.90933 9.23536 6.89566 10.6623 6.27119 12.273C5.64672 13.8838 5.43135 15.627 5.64475 17.3435C5.85815 19.06 6.49351 20.6952 7.49283 22.0996C8.49214 23.504 9.82357 24.633 11.3655 25.3835C12.9075 26.1339 14.6108 26.4819 16.3201 26.3957C18.0293 26.3095 19.6899 25.7918 21.1503 24.8899C22.6107 23.988 23.8244 22.7306 24.6804 21.2326C21.6393 21.2087 18.7307 19.9706 16.5887 17.7882C14.4466 15.6058 13.2446 12.656 13.2447 9.58156C13.2447 8.31289 13.4125 7.07399 13.7723 5.90241ZM3 16.0544C3 8.9045 8.73321 3.10874 15.8059 3.10874H16.3018C17.07 3.10874 17.5513 3.93887 17.1697 4.60553L16.9149 5.05059C16.1734 6.34515 15.8059 7.88568 15.8059 9.58156C15.8057 10.9196 16.0987 12.2412 16.6637 13.4512C17.2287 14.6612 18.0518 15.7298 19.0739 16.58C20.0959 17.4303 21.2916 18.0412 22.5749 18.3689C23.8582 18.6966 25.1974 18.7329 26.4963 18.4752L26.9711 18.3819C27.7219 18.2343 28.3535 18.9503 28.1135 19.6768L27.9549 20.1568C26.2581 25.2937 21.4623 29 15.8059 29C8.73321 29 3 23.2042 3 16.0544ZM26.691 8.82553L27.8614 10.9875L30 12.1707L27.8614 13.3539L26.691 15.5158L25.5205 13.3539L23.3819 12.1707L25.5205 10.9875L26.691 8.82553Z" fill="#0B0B0B"/>
</svg>
