<svg width="32" height="32" viewBox="0 0 32 32" fill="none" xmlns="http://www.w3.org/2000/svg">
<path d="M8.00016 17.3333C7.26683 17.3333 6.66683 17.9333 6.66683 18.6666C6.66683 19.3999 7.26683 19.9999 8.00016 19.9999C8.7335 19.9999 9.3335 19.3999 9.3335 18.6666C9.3335 17.9333 8.7335 17.3333 8.00016 17.3333ZM8.00016 22.6666C7.26683 22.6666 6.66683 23.2666 6.66683 23.9999C6.66683 24.7333 7.26683 25.3333 8.00016 25.3333C8.7335 25.3333 9.3335 24.7333 9.3335 23.9999C9.3335 23.2666 8.7335 22.6666 8.00016 22.6666ZM8.00016 11.9999C7.26683 11.9999 6.66683 12.5999 6.66683 13.3333C6.66683 14.0666 7.26683 14.6666 8.00016 14.6666C8.7335 14.6666 9.3335 14.0666 9.3335 13.3333C9.3335 12.5999 8.7335 11.9999 8.00016 11.9999ZM4.00016 12.6666C3.62683 12.6666 3.3335 12.9599 3.3335 13.3333C3.3335 13.7066 3.62683 13.9999 4.00016 13.9999C4.3735 13.9999 4.66683 13.7066 4.66683 13.3333C4.66683 12.9599 4.3735 12.6666 4.00016 12.6666ZM8.00016 6.66659C7.26683 6.66659 6.66683 7.26659 6.66683 7.99992C6.66683 8.73325 7.26683 9.33325 8.00016 9.33325C8.7335 9.33325 9.3335 8.73325 9.3335 7.99992C9.3335 7.26659 8.7335 6.66659 8.00016 6.66659ZM28.0002 13.9999C28.3735 13.9999 28.6668 13.7066 28.6668 13.3333C28.6668 12.9599 28.3735 12.6666 28.0002 12.6666C27.6268 12.6666 27.3335 12.9599 27.3335 13.3333C27.3335 13.7066 27.6268 13.9999 28.0002 13.9999ZM18.6668 9.33325C19.4002 9.33325 20.0002 8.73325 20.0002 7.99992C20.0002 7.26659 19.4002 6.66659 18.6668 6.66659C17.9335 6.66659 17.3335 7.26659 17.3335 7.99992C17.3335 8.73325 17.9335 9.33325 18.6668 9.33325ZM18.6668 4.66659C19.0402 4.66659 19.3335 4.37325 19.3335 3.99992C19.3335 3.62659 19.0402 3.33325 18.6668 3.33325C18.2935 3.33325 18.0002 3.62659 18.0002 3.99992C18.0002 4.37325 18.2935 4.66659 18.6668 4.66659ZM4.00016 17.9999C3.62683 17.9999 3.3335 18.2933 3.3335 18.6666C3.3335 19.0399 3.62683 19.3333 4.00016 19.3333C4.3735 19.3333 4.66683 19.0399 4.66683 18.6666C4.66683 18.2933 4.3735 17.9999 4.00016 17.9999ZM13.3335 27.3333C12.9602 27.3333 12.6668 27.6266 12.6668 27.9999C12.6668 28.3733 12.9602 28.6666 13.3335 28.6666C13.7068 28.6666 14.0002 28.3733 14.0002 27.9999C14.0002 27.6266 13.7068 27.3333 13.3335 27.3333ZM13.3335 4.66659C13.7068 4.66659 14.0002 4.37325 14.0002 3.99992C14.0002 3.62659 13.7068 3.33325 13.3335 3.33325C12.9602 3.33325 12.6668 3.62659 12.6668 3.99992C12.6668 4.37325 12.9602 4.66659 13.3335 4.66659ZM13.3335 9.33325C14.0668 9.33325 14.6668 8.73325 14.6668 7.99992C14.6668 7.26659 14.0668 6.66659 13.3335 6.66659C12.6002 6.66659 12.0002 7.26659 12.0002 7.99992C12.0002 8.73325 12.6002 9.33325 13.3335 9.33325ZM13.3335 16.6666C12.2268 16.6666 11.3335 17.5599 11.3335 18.6666C11.3335 19.7733 12.2268 20.6666 13.3335 20.6666C14.4402 20.6666 15.3335 19.7733 15.3335 18.6666C15.3335 17.5599 14.4402 16.6666 13.3335 16.6666ZM24.0002 17.3333C23.2668 17.3333 22.6668 17.9333 22.6668 18.6666C22.6668 19.3999 23.2668 19.9999 24.0002 19.9999C24.7335 19.9999 25.3335 19.3999 25.3335 18.6666C25.3335 17.9333 24.7335 17.3333 24.0002 17.3333ZM24.0002 22.6666C23.2668 22.6666 22.6668 23.2666 22.6668 23.9999C22.6668 24.7333 23.2668 25.3333 24.0002 25.3333C24.7335 25.3333 25.3335 24.7333 25.3335 23.9999C25.3335 23.2666 24.7335 22.6666 24.0002 22.6666ZM24.0002 11.9999C23.2668 11.9999 22.6668 12.5999 22.6668 13.3333C22.6668 14.0666 23.2668 14.6666 24.0002 14.6666C24.7335 14.6666 25.3335 14.0666 25.3335 13.3333C25.3335 12.5999 24.7335 11.9999 24.0002 11.9999ZM24.0002 6.66659C23.2668 6.66659 22.6668 7.26659 22.6668 7.99992C22.6668 8.73325 23.2668 9.33325 24.0002 9.33325C24.7335 9.33325 25.3335 8.73325 25.3335 7.99992C25.3335 7.26659 24.7335 6.66659 24.0002 6.66659ZM28.0002 17.9999C27.6268 17.9999 27.3335 18.2933 27.3335 18.6666C27.3335 19.0399 27.6268 19.3333 28.0002 19.3333C28.3735 19.3333 28.6668 19.0399 28.6668 18.6666C28.6668 18.2933 28.3735 17.9999 28.0002 17.9999ZM18.6668 22.6666C17.9335 22.6666 17.3335 23.2666 17.3335 23.9999C17.3335 24.7333 17.9335 25.3333 18.6668 25.3333C19.4002 25.3333 20.0002 24.7333 20.0002 23.9999C20.0002 23.2666 19.4002 22.6666 18.6668 22.6666ZM18.6668 27.3333C18.2935 27.3333 18.0002 27.6266 18.0002 27.9999C18.0002 28.3733 18.2935 28.6666 18.6668 28.6666C19.0402 28.6666 19.3335 28.3733 19.3335 27.9999C19.3335 27.6266 19.0402 27.3333 18.6668 27.3333ZM13.3335 11.3333C12.2268 11.3333 11.3335 12.2266 11.3335 13.3333C11.3335 14.4399 12.2268 15.3333 13.3335 15.3333C14.4402 15.3333 15.3335 14.4399 15.3335 13.3333C15.3335 12.2266 14.4402 11.3333 13.3335 11.3333ZM13.3335 22.6666C12.6002 22.6666 12.0002 23.2666 12.0002 23.9999C12.0002 24.7333 12.6002 25.3333 13.3335 25.3333C14.0668 25.3333 14.6668 24.7333 14.6668 23.9999C14.6668 23.2666 14.0668 22.6666 13.3335 22.6666ZM18.6668 16.6666C17.5602 16.6666 16.6668 17.5599 16.6668 18.6666C16.6668 19.7733 17.5602 20.6666 18.6668 20.6666C19.7735 20.6666 20.6668 19.7733 20.6668 18.6666C20.6668 17.5599 19.7735 16.6666 18.6668 16.6666ZM18.6668 11.3333C17.5602 11.3333 16.6668 12.2266 16.6668 13.3333C16.6668 14.4399 17.5602 15.3333 18.6668 15.3333C19.7735 15.3333 20.6668 14.4399 20.6668 13.3333C20.6668 12.2266 19.7735 11.3333 18.6668 11.3333Z" fill="#0B0B0B"/>
</svg>
