<svg width="32" height="32" viewBox="0 0 32 32" fill="none" xmlns="http://www.w3.org/2000/svg">
<path d="M10.7958 21.614C11.1481 21.8632 11.5693 21.9965 12.0008 21.9954C12.4323 21.9943 12.8527 21.8589 13.2038 21.608C13.5598 21.348 13.8298 20.988 13.9778 20.572L14.8718 17.826C15.1018 17.138 15.4878 16.512 15.9998 15.998C16.5131 15.4855 17.1381 15.0987 17.8258 14.868L20.6078 13.966C20.9115 13.8572 21.186 13.6796 21.4098 13.4471C21.6335 13.2147 21.8006 12.9337 21.8978 12.626C21.9817 12.3636 22.0126 12.0871 21.9886 11.8126C21.9645 11.5381 21.8861 11.2711 21.7578 11.0273C21.6296 10.7834 21.4541 10.5675 21.2415 10.3922C21.0289 10.2169 20.7836 10.0856 20.5198 10.006L17.7698 9.11204C17.081 8.88317 16.4549 8.49709 15.9412 7.98437C15.4274 7.47165 15.0401 6.84637 14.8098 6.15804L13.9058 3.38204C13.7878 3.05125 13.5882 2.75561 13.3255 2.52252C13.0629 2.28943 12.7456 2.12643 12.4031 2.04864C12.0606 1.97085 11.7041 1.98079 11.3664 2.07753C11.0288 2.17427 10.7211 2.35468 10.4718 2.60204C10.2407 2.8303 10.0655 3.10888 9.95981 3.41604L9.04581 6.21604C8.81835 6.88662 8.44061 7.49634 7.94147 7.99861C7.44232 8.50088 6.83496 8.8824 6.16581 9.11404L3.38381 10.01C3.08152 10.121 2.80845 10.2994 2.5853 10.5315C2.36214 10.7637 2.19475 11.0436 2.09581 11.35C1.99987 11.6577 1.97594 11.9832 2.02588 12.3016C2.07582 12.6199 2.19828 12.9226 2.38381 13.186C2.63981 13.546 3.00181 13.816 3.41781 13.958L6.16581 14.848C6.85788 15.0779 7.48638 15.4668 8.00081 15.9837C8.51524 16.5006 8.90125 17.1309 9.12781 17.824L10.0318 20.606C10.1758 21.014 10.4438 21.366 10.7958 21.614ZM23.0698 29.698C23.34 29.8907 23.6634 29.9945 23.9952 29.9952C24.327 29.9959 24.6508 29.8935 24.9218 29.702C25.2019 29.506 25.412 29.2258 25.5218 28.902L26.0178 27.378C26.1221 27.0606 26.2995 26.7722 26.5357 26.536C26.772 26.2997 27.0604 26.1223 27.3778 26.018L28.9218 25.514C29.2 25.4199 29.4465 25.2504 29.6341 25.0244C29.8216 24.7984 29.9426 24.5248 29.9838 24.234C30.0413 23.8563 29.9611 23.4704 29.7576 23.1469C29.5542 22.8234 29.2412 22.5839 28.8758 22.472L27.3478 21.974C27.0315 21.8689 26.744 21.6917 26.508 21.4563C26.272 21.221 26.0939 20.934 25.9878 20.618L25.4838 19.072C25.3764 18.7563 25.1711 18.4831 24.8978 18.292C24.5904 18.0706 24.2141 17.9661 23.8365 17.9973C23.4589 18.0284 23.1048 18.1932 22.8378 18.462C22.6603 18.6386 22.5267 18.8544 22.4478 19.092L21.9538 20.616C21.8516 20.9295 21.6784 21.2151 21.4477 21.4506C21.217 21.6862 20.9351 21.8653 20.6238 21.974L19.0778 22.478C18.7592 22.5851 18.4827 22.7902 18.2876 23.0639C18.0926 23.3376 17.989 23.666 17.9918 24.002C17.9933 24.3379 18.1006 24.6648 18.2984 24.9362C18.4962 25.2076 18.7745 25.4098 19.0938 25.514L20.6198 26.008C20.9378 26.116 21.2278 26.294 21.4638 26.53C21.7018 26.768 21.8778 27.056 21.9798 27.374L22.4858 28.922C22.5954 29.235 22.7994 29.5061 23.0698 29.698Z" fill="#0B0B0B"/>
</svg>
