<svg width="32" height="32" viewBox="0 0 32 32" fill="none" xmlns="http://www.w3.org/2000/svg">
<path d="M16.5 2.90039C24.0109 2.90039 30.0996 8.98909 30.0996 16.5C30.0996 24.0109 24.0109 30.0996 16.5 30.0996C8.98909 30.0996 2.90039 24.0109 2.90039 16.5C2.90039 8.98909 8.98909 2.90039 16.5 2.90039ZM16.5 5.55469C15.0627 5.55469 13.6394 5.83768 12.3115 6.3877C10.9836 6.93776 9.77712 7.74436 8.76074 8.76074C7.74436 9.77712 6.93776 10.9836 6.3877 12.3115C5.83768 13.6394 5.55469 15.0627 5.55469 16.5C5.55469 17.9373 5.83768 19.3606 6.3877 20.6885C6.93776 22.0164 7.74436 23.2229 8.76074 24.2393C9.77712 25.2556 10.9836 26.0622 12.3115 26.6123C13.6394 27.1623 15.0627 27.4453 16.5 27.4453C19.4029 27.4453 22.1866 26.2919 24.2393 24.2393C26.2919 22.1866 27.4453 19.4029 27.4453 16.5C27.4453 13.5971 26.2919 10.8134 24.2393 8.76074C22.1866 6.70807 19.4029 5.55469 16.5 5.55469ZM9.36816 15.3359C9.97554 15.3359 10.4685 15.8282 10.4688 16.4355V16.9834C10.4688 17.5909 9.97568 18.084 9.36816 18.084H8.91406C8.30655 18.084 7.81445 17.5909 7.81445 16.9834V16.4355C7.81467 15.8282 8.30669 15.3359 8.91406 15.3359H9.36816ZM16.7275 7.80957C17.3349 7.80971 17.8271 8.30176 17.8271 8.90918V9.36328C17.8271 9.97071 17.3349 10.4637 16.7275 10.4639H16.5C15.4307 10.4634 14.3806 10.7473 13.457 11.2861C12.5334 11.8249 11.769 12.5993 11.2432 13.5303L11.1309 13.7285C10.8316 14.2572 10.1605 14.4437 9.63184 14.1445L9.23633 13.9209C8.70781 13.6217 8.52233 12.9505 8.82129 12.4219L8.93262 12.2236C9.68975 10.8835 10.7897 9.76885 12.1191 8.99316C13.4488 8.21742 14.9606 7.80914 16.5 7.80957H16.7275Z" fill="#0B0B0B" stroke="#0B0B0B" stroke-width="0.2"/>
</svg>
