<svg width="32" height="32" viewBox="0 0 32 32" fill="none" xmlns="http://www.w3.org/2000/svg">
<path d="M16.4 22.6667C18.2444 22.6667 19.8169 22.0164 21.1173 20.716C22.4178 19.4156 23.0676 17.8436 23.0667 16C23.0658 14.1564 22.4156 12.5844 21.116 11.284C19.8164 9.98356 18.2444 9.33333 16.4 9.33333H15.8493C15.6609 9.33333 15.4778 9.35556 15.3 9.4C14.9667 9.46667 14.7556 9.66133 14.6667 9.984C14.5778 10.3067 14.6556 10.5564 14.9 10.7333C15.7444 11.3556 16.3889 12.128 16.8333 13.0507C17.2778 13.9733 17.5 14.9564 17.5 16C17.5 17.0667 17.2889 18.0724 16.8667 19.0173C16.4444 19.9622 15.7889 20.712 14.9 21.2667C14.6333 21.4444 14.5387 21.6947 14.616 22.0173C14.6933 22.34 14.9213 22.5231 15.3 22.5667C15.4778 22.6111 15.6613 22.6391 15.8507 22.6507C16.04 22.6622 16.2231 22.6676 16.4 22.6667ZM11.5333 26.6667H8C7.26667 26.6667 6.63911 26.4058 6.11733 25.884C5.59556 25.3622 5.33422 24.7342 5.33333 24V20.4667L2.76667 17.8667C2.52222 17.6 2.33333 17.3058 2.2 16.984C2.06667 16.6622 2 16.3342 2 16C2 15.6658 2.06667 15.3382 2.2 15.0173C2.33333 14.6964 2.52222 14.4018 2.76667 14.1333L5.33333 11.5333V8C5.33333 7.26667 5.59467 6.63911 6.11733 6.11733C6.64 5.59556 7.26756 5.33422 8 5.33333H11.5333L14.1333 2.76667C14.4 2.52222 14.6947 2.33333 15.0173 2.2C15.34 2.06667 15.6676 2 16 2C16.3324 2 16.6604 2.06667 16.984 2.2C17.3076 2.33333 17.6018 2.52222 17.8667 2.76667L20.4667 5.33333H24C24.7333 5.33333 25.3613 5.59467 25.884 6.11733C26.4067 6.64 26.6676 7.26756 26.6667 8V11.5333L29.2333 14.1333C29.4778 14.4 29.6667 14.6947 29.8 15.0173C29.9333 15.34 30 15.6676 30 16C30 16.3324 29.9333 16.6604 29.8 16.984C29.6667 17.3076 29.4778 17.6018 29.2333 17.8667L26.6667 20.4667V24C26.6667 24.7333 26.4058 25.3613 25.884 25.884C25.3622 26.4067 24.7342 26.6676 24 26.6667H20.4667L17.8667 29.2333C17.6 29.4778 17.3058 29.6667 16.984 29.8C16.6622 29.9333 16.3342 30 16 30C15.6658 30 15.3382 29.9333 15.0173 29.8C14.6964 29.6667 14.4018 29.4778 14.1333 29.2333L11.5333 26.6667ZM12.6667 24L16 27.3333L19.3333 24H24V19.3333L27.3333 16L24 12.6667V8H19.3333L16 4.66667L12.6667 8H8V12.6667L4.66667 16L8 19.3333V24H12.6667Z" fill="#0B0B0B"/>
</svg>
