<svg width="32" height="32" viewBox="0 0 32 32" fill="none" xmlns="http://www.w3.org/2000/svg">
<path d="M14.3451 24.2842C14.3651 24.3034 14.384 24.3237 14.4018 24.3449C14.0651 24.2549 13.7345 24.1431 13.4123 24.0101C13.5783 23.9739 13.7507 23.98 13.9137 24.0279C14.0768 24.0758 14.2251 24.1639 14.3451 24.2842ZM11.6883 22.8518C11.6522 22.888 11.6134 22.9214 11.5722 22.9517C11.0413 22.5449 10.5625 22.0743 10.1466 21.5504C10.2276 21.4359 10.3315 21.3394 10.4517 21.2671C10.5719 21.1948 10.7058 21.1483 10.845 21.1305C10.9841 21.1127 11.1255 21.124 11.26 21.1637C11.3946 21.2034 11.5194 21.2706 11.6266 21.3611C11.7338 21.4516 11.821 21.5634 11.8827 21.6893C11.9444 21.8153 11.9793 21.9527 11.9851 22.0929C11.9909 22.2331 11.9675 22.3729 11.9164 22.5035C11.8653 22.6342 11.7877 22.7528 11.6883 22.8518ZM8.90057 18.7249C9.0453 18.8696 9.14277 19.0548 9.18012 19.256C9.21748 19.4573 9.19297 19.6651 9.10982 19.8521C8.91829 19.4289 8.76381 18.9899 8.64812 18.5399C8.74135 18.5881 8.82652 18.6505 8.90057 18.7249ZM8.90057 14.7113C8.80014 14.8119 8.67961 14.8901 8.54688 14.9408C8.64973 14.4162 8.80532 13.9033 9.01127 13.4099C9.14942 13.605 9.21408 13.8427 9.19382 14.0809C9.17356 14.3191 9.06968 14.5424 8.90057 14.7113ZM10.256 12.0545C10.1448 11.9435 10.0612 11.8081 10.0116 11.659C10.3694 11.1824 10.7784 10.7464 11.2307 10.3589C11.3811 10.3986 11.5203 10.4723 11.6376 10.5744C11.7549 10.6766 11.8471 10.8044 11.907 10.9479C11.9669 11.0914 11.993 11.2468 11.9832 11.402C11.9733 11.5572 11.9279 11.7081 11.8503 11.8429C11.7728 11.9777 11.6652 12.0929 11.536 12.1794C11.4067 12.2659 11.2593 12.3215 11.1051 12.3418C10.9509 12.3622 10.7941 12.3467 10.6468 12.2966C10.4996 12.2466 10.3658 12.1646 10.256 12.0545ZM12.9141 9.43553C12.8736 9.39507 12.8366 9.35127 12.8034 9.30458C13.3857 9.00572 14.0022 8.77905 14.6394 8.62958C14.6589 8.83716 14.6138 9.0457 14.5102 9.22663C14.4066 9.40755 14.2496 9.55203 14.0607 9.64027C13.8718 9.72852 13.6602 9.75621 13.455 9.71956C13.2497 9.6829 13.0608 9.5837 12.9141 9.43553ZM18.2372 24.4286C18.6557 24.3368 19.0607 24.2126 19.4522 24.0601C19.238 23.9737 19.0007 23.9632 18.7797 24.0303C18.5587 24.0973 18.3673 24.2379 18.2372 24.4286ZM21.2666 23.0611C21.812 22.6642 22.3061 22.1998 22.7354 21.68C22.6485 21.5696 22.5396 21.4784 22.4156 21.4123C22.2916 21.3462 22.1551 21.3067 22.015 21.2962C21.8749 21.2857 21.7341 21.3045 21.6016 21.3514C21.4691 21.3983 21.3479 21.4723 21.2455 21.5686C21.1432 21.6649 21.062 21.7814 21.0072 21.9108C20.9524 22.0402 20.9251 22.1796 20.9271 22.3201C20.929 22.4607 20.9603 22.5992 21.0187 22.727C21.0772 22.8548 21.1616 22.9677 21.2666 23.0611ZM23.7425 20.1343C24.0136 19.5927 24.2224 19.022 24.3648 18.4333C24.178 18.4545 24.0007 18.5272 23.8529 18.6435C23.7051 18.7597 23.5926 18.9149 23.528 19.0915C23.4634 19.268 23.4492 19.4591 23.4871 19.6433C23.525 19.8275 23.6134 19.9975 23.7425 20.1343ZM24.4526 15.0056C24.3355 14.3852 24.1456 13.7807 23.8869 13.2047C23.7271 13.3321 23.6095 13.5049 23.5497 13.7003C23.4899 13.8958 23.4906 14.1048 23.5519 14.2998C23.6131 14.4948 23.7319 14.6667 23.8926 14.793C24.0534 14.9192 24.2486 14.9938 24.4526 15.007M22.9203 11.5861C22.5713 11.1317 22.1754 10.7154 21.7391 10.3441C21.5616 10.3798 21.3969 10.4624 21.2622 10.5834C21.1274 10.7044 21.0276 10.8593 20.9731 11.032C20.9186 11.2046 20.9114 11.3887 20.9523 11.5651C20.9931 11.7415 21.0805 11.9038 21.2054 12.0349C21.3302 12.166 21.488 12.2613 21.6622 12.3107C21.8363 12.3602 22.0206 12.362 22.1957 12.316C22.3709 12.2701 22.5305 12.178 22.6579 12.0493C22.7854 11.9207 22.876 11.7616 22.9203 11.5861ZM19.7897 9.43553C19.86 9.36543 19.9195 9.28537 19.9665 9.19793C19.3636 8.91133 18.7274 8.70091 18.0725 8.57153C18.0414 8.7821 18.0776 8.99709 18.1757 9.18595C18.2738 9.37482 18.4289 9.52797 18.6191 9.62363C18.8092 9.71929 19.0246 9.75261 19.2348 9.71884C19.4449 9.68507 19.6391 9.58594 19.7897 9.43553ZM17.2098 10.6222C17.3093 10.7149 17.3891 10.8267 17.4444 10.9509C17.4998 11.0751 17.5295 11.2091 17.5319 11.3451C17.5343 11.481 17.5093 11.6161 17.4584 11.7421C17.4075 11.8682 17.3317 11.9827 17.2355 12.0789C17.1394 12.175 17.0249 12.2508 16.8988 12.3017C16.7727 12.3527 16.6377 12.3777 16.5017 12.3753C16.3658 12.3729 16.2317 12.3431 16.1075 12.2878C15.9833 12.2324 15.8715 12.1527 15.7788 12.0532C15.6 11.8612 15.5026 11.6074 15.5072 11.3451C15.5119 11.0828 15.6181 10.8325 15.8036 10.647C15.9891 10.4615 16.2394 10.3552 16.5017 10.3506C16.764 10.346 17.0179 10.4433 17.2098 10.6222ZM14.3451 13.2803C14.4446 13.373 14.5244 13.4848 14.5797 13.609C14.6351 13.7332 14.6648 13.8673 14.6672 14.0032C14.6696 14.1392 14.6446 14.2742 14.5937 14.4003C14.5428 14.5264 14.467 14.6409 14.3708 14.737C14.2747 14.8332 14.1602 14.909 14.0341 14.9599C13.908 15.0108 13.773 15.0358 13.637 15.0334C13.5011 15.031 13.367 15.0013 13.2428 14.9459C13.1186 14.8906 13.0068 14.8108 12.9141 14.7113C12.7353 14.5194 12.6379 14.2655 12.6425 14.0032C12.6472 13.7409 12.7534 13.4907 12.9389 13.3051C13.1244 13.1196 13.3747 13.0134 13.637 13.0087C13.8993 13.0041 14.1532 13.1015 14.3451 13.2803ZM11.6883 17.576C11.7824 17.482 11.857 17.3703 11.9079 17.2474C11.9588 17.1246 11.985 16.9929 11.985 16.8599C11.985 16.7269 11.9588 16.5951 11.9079 16.4723C11.857 16.3494 11.7824 16.2377 11.6883 16.1437C11.5943 16.0496 11.4826 15.975 11.3597 15.9241C11.2369 15.8732 11.1052 15.847 10.9721 15.847C10.8391 15.847 10.7074 15.8732 10.5846 15.9241C10.4617 15.975 10.35 16.0496 10.256 16.1437C10.0771 16.3356 9.97976 16.5895 9.98439 16.8518C9.98902 17.1141 10.0953 17.3644 10.2808 17.5499C10.4663 17.7354 10.7166 17.8416 10.9789 17.8463C11.2412 17.8509 11.495 17.7535 11.687 17.5747M14.3451 18.7249C14.4446 18.8176 14.5244 18.9294 14.5797 19.0536C14.6351 19.1778 14.6648 19.3118 14.6672 19.4478C14.6696 19.5837 14.6446 19.7188 14.5937 19.8448C14.5428 19.9709 14.467 20.0854 14.3708 20.1816C14.2747 20.2777 14.1602 20.3535 14.0341 20.4044C13.908 20.4554 13.773 20.4804 13.637 20.478C13.5011 20.4756 13.367 20.4458 13.2428 20.3905C13.1186 20.3351 13.0068 20.2554 12.9141 20.1559C12.7353 19.9639 12.6379 19.7101 12.6425 19.4478C12.6472 19.1855 12.7534 18.9352 12.9389 18.7497C13.1244 18.5642 13.3747 18.4579 13.637 18.4533C13.8993 18.4487 14.1532 18.546 14.3451 18.7249ZM17.2098 17.576C17.3039 17.482 17.3785 17.3703 17.4294 17.2474C17.4803 17.1246 17.5065 16.9929 17.5065 16.8599C17.5065 16.7269 17.4803 16.5951 17.4294 16.4723C17.3785 16.3494 17.3039 16.2377 17.2098 16.1437C17.1158 16.0496 17.0041 15.975 16.8812 15.9241C16.7584 15.8732 16.6267 15.847 16.4936 15.847C16.3606 15.847 16.2289 15.8732 16.1061 15.9241C15.9832 15.975 15.8715 16.0496 15.7775 16.1437C15.5986 16.3356 15.5013 16.5895 15.5059 16.8518C15.5105 17.1141 15.6168 17.3644 15.8023 17.5499C15.9878 17.7354 16.2381 17.8416 16.5004 17.8463C16.7627 17.8509 17.0165 17.7535 17.2085 17.5747M19.7897 13.2803C19.8892 13.373 19.9689 13.4848 20.0243 13.609C20.0796 13.7332 20.1094 13.8673 20.1118 14.0032C20.1142 14.1392 20.0892 14.2742 20.0382 14.4003C19.9873 14.5264 19.9115 14.6409 19.8154 14.737C19.7192 14.8332 19.6047 14.909 19.4786 14.9599C19.3526 15.0108 19.2175 15.0358 19.0816 15.0334C18.9456 15.031 18.8115 15.0013 18.6873 14.9459C18.5631 14.8906 18.4514 14.8108 18.3587 14.7113C18.1798 14.5194 18.0825 14.2655 18.0871 14.0032C18.0917 13.7409 18.198 13.4907 18.3835 13.3051C18.569 13.1196 18.8193 13.0134 19.0816 13.0087C19.3439 13.0041 19.5977 13.1015 19.7897 13.2803ZM22.6544 17.5369C22.751 17.4434 22.8281 17.3317 22.8811 17.2081C22.9341 17.0846 22.962 16.9517 22.9631 16.8173C22.9642 16.6828 22.9385 16.5495 22.8876 16.4251C22.8366 16.3007 22.7614 16.1877 22.6662 16.0927C22.5711 15.9976 22.458 15.9225 22.3336 15.8717C22.2091 15.8208 22.0758 15.7953 21.9414 15.7965C21.8069 15.7977 21.6741 15.8257 21.5506 15.8788C21.4271 15.932 21.3154 16.0091 21.222 16.1059C21.0432 16.2978 20.9458 16.5517 20.9504 16.814C20.9551 17.0763 21.0613 17.3266 21.2468 17.5121C21.4323 17.6976 21.6826 17.8038 21.9449 17.8085C22.2072 17.8131 22.4624 17.7157 22.6544 17.5369ZM19.7708 18.7816C19.8703 18.8743 19.95 18.9861 20.0054 19.1103C20.0607 19.2345 20.0905 19.3685 20.0929 19.5045C20.0953 19.6404 20.0703 19.7755 20.0193 19.9015C19.9684 20.0276 19.8926 20.1421 19.7965 20.2383C19.7003 20.3344 19.5858 20.4102 19.4597 20.4612C19.3337 20.5121 19.1986 20.5371 19.0627 20.5347C18.9267 20.5323 18.7926 20.5025 18.6684 20.4472C18.5442 20.3918 18.4325 20.3121 18.3398 20.2126C18.1609 20.0206 18.0636 19.7668 18.0682 19.5045C18.0728 19.2422 18.1791 18.9919 18.3646 18.8064C18.5501 18.6209 18.8004 18.5146 19.0627 18.51C19.325 18.5054 19.5788 18.6027 19.7708 18.7816ZM16.9263 22.8518C17.0258 22.7591 17.1056 22.6474 17.1609 22.5232C17.2163 22.399 17.246 22.2649 17.2484 22.1289C17.2508 21.993 17.2258 21.858 17.1749 21.7319C17.124 21.6058 17.0482 21.4913 16.952 21.3951C16.8559 21.299 16.7414 21.2232 16.6153 21.1723C16.4892 21.1213 16.3542 21.0963 16.2182 21.0987C16.0823 21.1011 15.9482 21.1309 15.824 21.1862C15.6998 21.2416 15.588 21.3214 15.4953 21.4208C15.3165 21.6128 15.2191 21.8666 15.2237 22.1289C15.2284 22.3912 15.3346 22.6415 15.5201 22.827C15.7056 23.0125 15.9559 23.1188 16.2182 23.1234C16.4805 23.128 16.7344 23.0307 16.9263 22.8518Z" fill="#0B0B0B"/>
<path fill-rule="evenodd" clip-rule="evenodd" d="M30 16.5C30 23.9561 23.9561 30 16.5 30C9.04395 30 3 23.9561 3 16.5C3 9.04395 9.04395 3 16.5 3C23.9561 3 30 9.04395 30 16.5ZM27.3 16.5C27.3 19.3643 26.1621 22.1114 24.1368 24.1368C22.1114 26.1621 19.3643 27.3 16.5 27.3C13.6357 27.3 10.8886 26.1621 8.86325 24.1368C6.83785 22.1114 5.7 19.3643 5.7 16.5C5.7 13.6357 6.83785 10.8886 8.86325 8.86325C10.8886 6.83785 13.6357 5.7 16.5 5.7C19.3643 5.7 22.1114 6.83785 24.1368 8.86325C26.1621 10.8886 27.3 13.6357 27.3 16.5Z" fill="#0B0B0B"/>
</svg>
